# xmcd CD database file
#
# Track frame offsets:
#	150
#	12250
#	19757
#	38351
#	55004
#	70839
#	78232
#	84715
#	97856
#	105424
#	107576
#	113684
#	121938
#	131577
#	142992
#	153179
#	157211
#	161014
#
# Disc length: 2170 seconds
#
# Revision: 0
# Processed by: cddbd v1.5.2PL0 Copyright (c) Steve Scherf et al.
# Submitted via: CDex 1.70beta2
#
DISCID=d0087812
DTITLE=Elise Caron and Edward Perraud - Bitter Sweets
DYEAR=2012
DGENRE=Jazz
TTITLE0=Slanguage
TTITLE1=Au dela de l'eau de la riziere
TTITLE2=Give me your tong
TTITLE3=Reves Partis
TTITLE4=Glissando Scivolante
TTITLE5=Longue breve song
TTITLE6=Amsterdam Lied
TTITLE7=Le beau moqueur
TTITLE8=Spheres
TTITLE9=Les trois oui
TTITLE10=Le rappeur Khalité prie
TTITLE11=Ni Boulez ni marteau
TTITLE12=Le gras et le mouillé
TTITLE13=Qui caresse ma joue
TTITLE14=J'ai perdu mes lunettes
TTITLE15=Brutes
TTITLE16=Nymphs and Sheperds
TTITLE17=Milles feuilles
EXTD=YEAR: 2012
EXTT0=
EXTT1=
EXTT2=
EXTT3=
EXTT4=
EXTT5=
EXTT6=
EXTT7=
EXTT8=
EXTT9=
EXTT10=
EXTT11=
EXTT12=
EXTT13=
EXTT14=
EXTT15=
EXTT16=
EXTT17=
PLAYORDER=
